<svg width="23" height="23" viewBox="0 0 23 23" fill="none" xmlns="http://www.w3.org/2000/svg">
<g clip-path="url(#clip0_576_17170)">
<path d="M6.82811 6.91815L6.17692 9.00684L5.54801 6.91815L3.45933 6.26696L5.54801 5.63805L6.17692 3.52637L6.82811 5.63805L8.91679 6.26696L6.82811 6.91815ZM10.4671 5.77246L10.1523 6.8283L9.79295 5.77246L8.75939 5.43537L9.79295 5.12055L10.1523 4.08699L10.4671 5.12055L11.5007 5.43537L10.4671 5.77246ZM0.20195 17.2502L13.0719 4.7619C13.1617 4.64977 13.2969 4.58221 13.4535 4.58221C13.6555 4.55993 13.8582 4.62749 14.0149 4.78418C14.0825 4.82946 14.1723 4.9193 14.3067 5.03143C14.554 5.2564 14.8235 5.52593 15.0255 5.79546C15.1153 5.93059 15.1606 6.04271 15.1606 6.15484C15.1829 6.3798 15.1153 6.58177 14.9809 6.71618L2.11095 19.2497C1.99883 19.3619 1.8637 19.4071 1.70629 19.4294C1.50433 19.4517 1.30164 19.3841 1.14495 19.2275C1.07739 19.1599 0.987544 19.0923 0.853138 18.9579C0.605888 18.756 0.336357 18.4864 0.156669 18.1939C0.0668254 18.0588 0.0215441 17.9244 -0.000737128 17.8122C-0.0230184 17.5873 0.0445441 17.4076 0.201232 17.2509L0.20195 17.2502ZM10.534 8.17596L11.4777 9.14196L14.4648 6.24468L13.5211 5.2564L10.534 8.17596ZM4.26792 9.45605L3.97611 10.4896L3.66129 9.45605L2.62773 9.11896L3.66129 8.80415L3.97611 7.7483L4.26792 8.80415L5.34604 9.11896L4.26792 9.45605ZM14.7344 8.67046L15.0715 9.7263L16.105 10.0411L15.0715 10.3782L14.7344 11.4118L14.3973 10.3782L13.3637 10.0411L14.3973 9.7263L14.7344 8.67046Z" fill="#F9F9F9"/>
</g>
<defs>
<clipPath id="clip0_576_17170">
<rect width="23" height="23" fill="white"/>
</clipPath>
</defs>
</svg>
